<svg id="Layer_1" data-name="Layer 1" xmlns="http://www.w3.org/2000/svg" xmlns:xlink="http://www.w3.org/1999/xlink" viewBox="0 0 986 135.12"><defs><style>.cls-1{fill:#fff;}.cls-2{fill:url(#linear-gradient);}.cls-3{fill:url(#linear-gradient-2);}</style><linearGradient id="linear-gradient" x1="453.82" y1="473.64" x2="993" y2="473.64" gradientUnits="userSpaceOnUse"><stop offset="0" stop-color="#e0821a"/><stop offset="1" stop-color="#fbaf3a"/></linearGradient><linearGradient id="linear-gradient-2" x1="49.24" y1="22.93" x2="95.2" y2="22.93" xlink:href="#linear-gradient"/></defs><title>white</title><path class="cls-1" d="M227.36,437.44A149.36,149.36,0,0,1,249.93,436q19.79,0,30.53,7.88,12.57,9.32,12.57,28,0,19.59-12.3,30.05-11.57,9.58-34.13,9.59a160.73,160.73,0,0,1-19.24-1Zm16.73,60.64a50.8,50.8,0,0,0,6,.28q11.69.06,18.29-6.33,6.86-6.66,6.86-19.64,0-11.49-6.32-17.54-6.12-6.06-17.2-6.05a35.35,35.35,0,0,0-7.61.68Z" transform="translate(-7 -432.44)"/><path class="cls-1" d="M307.31,464.84q7.54-9.18,20.67-9.18,12.24,0,18.63,8.43,5.56,7.21,5.57,18.49a35.79,35.79,0,0,1-.68,6.53H316.76a9.48,9.48,0,0,0,4.9,7.75A19.35,19.35,0,0,0,332,499.38a46.29,46.29,0,0,0,14.82-2.32l2.24,11.49a52.47,52.47,0,0,1-19.51,3.4q-13.59,0-21.21-7.47-7.54-7.28-7.55-20.13A30.27,30.27,0,0,1,307.31,464.84Zm29.17,12.78a12.69,12.69,0,0,0-1.84-6.87,8.48,8.48,0,0,0-7.61-4,9.23,9.23,0,0,0-7.69,3.81,13.39,13.39,0,0,0-2.65,7.07Z" transform="translate(-7 -432.44)"/><path class="cls-1" d="M363.33,447.78a8.17,8.17,0,0,1-2.31-5.92,8.41,8.41,0,0,1,2.38-6.12,9,9,0,0,1,6.46-2.38,8.82,8.82,0,0,1,6.39,2.38,8.45,8.45,0,0,1,2.38,6.12,7.83,7.83,0,0,1-2.32,5.92,9.37,9.37,0,0,1-6.73,2.44A8.47,8.47,0,0,1,363.33,447.78Zm-2,9.11h16.93v53.84H361.29Z" transform="translate(-7 -432.44)"/><path class="cls-1" d="M391.48,474q0-7.54-.48-17.13h14.68l.75,7.41h.34q5.37-8.64,16.66-8.64,8.63,0,13.73,5.58,5.5,6.12,5.51,17.54v32H425.94V480.88q0-11.69-8.49-11.69-6.27,0-8.5,6.26a11.52,11.52,0,0,0-.61,4.14v31.14H391.48Z" transform="translate(-7 -432.44)"/><path class="cls-2" d="M457.22,493.39a39.26,39.26,0,0,0,18.69,4.69q11.76,0,11.76-8.09,0-6-12.37-10.4-20.6-7.41-20.6-22a19.63,19.63,0,0,1,7.55-15.9q7.74-6.39,20.6-6.39,11.07,0,18.9,3.67l-3.61,13.52A38.25,38.25,0,0,0,482.57,449q-5.16,0-8.09,2.24a5.83,5.83,0,0,0-2.72,5c0,2.13,1.11,4,3.34,5.57q2.64,1.91,10.47,4.9,19.17,7.06,19.17,22.16A20.32,20.32,0,0,1,497.53,505Q489.45,512,474.82,512q-12.65,0-21-4.62Zm63-28.55q7.54-9.18,20.66-9.18,12.24,0,18.63,8.43,5.58,7.21,5.58,18.49a35.79,35.79,0,0,1-.68,6.53H529.69a9.47,9.47,0,0,0,4.89,7.75,19.39,19.39,0,0,0,10.34,2.52,46.38,46.38,0,0,0,14.82-2.32L562,508.55a52.47,52.47,0,0,1-19.51,3.4q-13.61,0-21.21-7.47-7.54-7.28-7.55-20.13A30.27,30.27,0,0,1,520.24,464.84Zm29.16,12.78a12.68,12.68,0,0,0-1.83-6.87,8.5,8.5,0,0,0-7.62-4,9.22,9.22,0,0,0-7.68,3.81,13.39,13.39,0,0,0-2.65,7.07Zm24.88-3.06q0-11.55-.47-17.67h14.48l.61,9.85h.41q3.95-11.07,14.55-11.08c1.58,0,2.81,0,3.67.14v15.84a25.54,25.54,0,0,0-4.62-.48q-9.66,0-11.49,8.43a24.48,24.48,0,0,0-.28,3.81v27.33H574.28ZM614,456.89h18.15l7.34,25q1.42,4.91,3.06,13.06h.27q1.58-7.41,3.06-13.06l6.94-25h17.61l-20.06,53.84H633.57Zm67.23,7.95q7.54-9.18,20.67-9.18,12.24,0,18.63,8.43,5.57,7.21,5.57,18.49a34.93,34.93,0,0,1-.68,6.53H690.67a9.48,9.48,0,0,0,4.9,7.75,19.35,19.35,0,0,0,10.33,2.52,46.29,46.29,0,0,0,14.82-2.32L723,508.55a52.52,52.52,0,0,1-19.52,3.4q-13.59,0-21.21-7.47-7.54-7.28-7.54-20.13A30.27,30.27,0,0,1,681.22,464.84Zm29.17,12.78a12.6,12.6,0,0,0-1.84-6.87,8.48,8.48,0,0,0-7.61-4,9.22,9.22,0,0,0-7.68,3.81,13.31,13.31,0,0,0-2.65,7.07Zm24.88-3.06q0-11.55-.47-17.67h14.48l.61,9.85h.41q3.93-11.07,14.54-11.08c1.59,0,2.81,0,3.68.14v15.84a25.73,25.73,0,0,0-4.63-.48q-9.64,0-11.49,8.43a24.55,24.55,0,0,0-.27,3.81v27.33H735.27Zm42.49-38.14h16.86V465h27.67V436.42H839v74.31H822.29V479.59H794.62v31.14H777.76Zm78.59,26.45q7.89-7.2,20.33-7.21t19.85,7.55q7.76,7.68,7.75,20.53,0,13.93-9.45,21.62-8,6.6-19.51,6.59-11.9,0-19.51-7.41-7.89-7.74-7.89-20.73Q847.92,470.63,856.35,462.87Zm11.56,32.29q3,4.83,8.16,4.83a9,9,0,0,0,8.16-4.76q2.71-4.29,2.71-11.22a23.5,23.5,0,0,0-2.31-11.08q-2.85-5.37-8.56-5.37t-8.5,5.37a22.78,22.78,0,0,0-2.31,10.88A22,22,0,0,0,867.91,495.16Zm46.64.88A27.16,27.16,0,0,0,929,500.19q7.2,0,7.2-4.55,0-3.47-7.81-6.19Q913,484.29,913,473.27a15.71,15.71,0,0,1,5.85-12.64q6.12-5,16-5,9,0,15.23,3.06l-3,11.56a25.93,25.93,0,0,0-11.69-3.13q-6.39,0-6.39,4.49,0,3.06,8.77,6.18,14.4,5,14.61,16.59A15.34,15.34,0,0,1,946.5,507q-6.25,5-17.47,5-10.47,0-17.41-3.87Zm50-4.82v-22h-7.27v-12.3h7.27V445.26L981,441.39v15.5h12v12.3H981v19.44q0,9.53,6.46,9.52a20.31,20.31,0,0,0,5.1-.54l.14,12.85A34.87,34.87,0,0,1,981.85,512q-8.22,0-12.71-4.76T964.58,491.22Z" transform="translate(-7 -432.44)"/><rect class="cls-1" y="68.85" width="66.42" height="66.27" rx="8.09" ry="8.09"/><rect class="cls-1" x="84.01" y="65.2" width="49.36" height="49.24" rx="8.38" ry="8.38"/><rect class="cls-1" x="115.29" y="11.22" width="34.78" height="34.7" rx="8.72" ry="8.72"/><rect class="cls-3" x="49.24" width="45.97" height="45.86" rx="11.52" ry="11.52"/><path class="cls-1" d="M293.71,560a15.81,15.81,0,0,0,7.53,1.89c3.16,0,4.75-1.08,4.75-3.26,0-1.61-1.67-3-5-4.19q-8.31-3-8.31-8.85a7.93,7.93,0,0,1,3.05-6.42,12.67,12.67,0,0,1,8.3-2.57,17.76,17.76,0,0,1,7.62,1.48l-1.45,5.45a15.39,15.39,0,0,0-6.28-1.42,5.24,5.24,0,0,0-3.26.9,2.35,2.35,0,0,0-1.1,2,2.75,2.75,0,0,0,1.35,2.25,20.91,20.91,0,0,0,4.22,2q7.73,2.85,7.72,8.94a8.17,8.17,0,0,1-2.9,6.52q-3.27,2.79-9.15,2.79a17.38,17.38,0,0,1-8.47-1.86Z" transform="translate(-7 -432.44)"/><path class="cls-1" d="M320.84,540.66a16.59,16.59,0,0,1,11.56-4.08q5.07,0,7.4,1.31l-1.45,5.35a13.76,13.76,0,0,0-5.62-1.13,9.42,9.42,0,0,0-6.79,2.47,11.38,11.38,0,0,0-.25,14.58,9.48,9.48,0,0,0,7.1,2.66,15.05,15.05,0,0,0,5.64-1l1,5.34a18.6,18.6,0,0,1-7.68,1.29q-7.5,0-11.72-4.33-4-4-3.95-10.68Q316.07,545,320.84,540.66Z" transform="translate(-7 -432.44)"/><path class="cls-1" d="M343.86,537h6.79v11.51h11.16V537h6.74v30h-6.74V554.42H350.65V567h-6.79Z" transform="translate(-7 -432.44)"/><path class="cls-1" d="M374.39,537h7.89l6.19,11a88.55,88.55,0,0,1,4.93,10.27h.11a115.82,115.82,0,0,1-.57-12.52V537h6.22v30h-7l-6.44-11.51a108.15,108.15,0,0,1-5.21-10.58h-.17q.31,5.54.31,13.13v9h-6.22Z" transform="translate(-7 -432.44)"/><path class="cls-1" d="M405,537h18.45v5.56H411.82v6.22h11v5.51h-11v7.1h12.3V567H405Z" transform="translate(-7 -432.44)"/><path class="cls-1" d="M428.73,537h6.79V561.3h11.92V567H428.73Z" transform="translate(-7 -432.44)"/><path class="cls-1" d="M451.39,537h6.8V561.3h11.92V567H451.39Z" transform="translate(-7 -432.44)"/><path class="cls-1" d="M527.81,552.36q0-7.29,4.9-11.56,4.66-4.08,12.2-4.08a20.36,20.36,0,0,1,8.33,1.42l-1.43,5.48a17,17,0,0,0-6.93-1.31,10.19,10.19,0,0,0-7.13,2.41,9.26,9.26,0,0,0-2.87,7.29,9.66,9.66,0,0,0,2.68,7.2,9.09,9.09,0,0,0,6.77,2.61,8.6,8.6,0,0,0,3.32-.44V555.1h-4.58v-5.28h11.12V565.6a29.22,29.22,0,0,1-10,1.67q-8,0-12.19-4T527.81,552.36Z" transform="translate(-7 -432.44)"/><path class="cls-1" d="M559.35,537h6.74v17.34q0,7.74,5.48,7.73t5.51-7.73V537h6.74V553.9q0,13.56-12.5,13.56-12,0-12-13.64Zm5.59-2.66a3,3,0,0,1-.91-2.22,2.93,2.93,0,0,1,.91-2.22,3.11,3.11,0,0,1,2.27-.88,3,3,0,0,1,2.17.85,3.18,3.18,0,0,1,.85,2.25,3.14,3.14,0,0,1-.85,2.22,2.92,2.92,0,0,1-2.17.9A3.08,3.08,0,0,1,564.94,534.36Zm9.37,0a3,3,0,0,1-.88-2.22,3,3,0,0,1,.88-2.22,3.17,3.17,0,0,1,2.27-.88,3,3,0,0,1,2.17.85,3.26,3.26,0,0,1,0,4.47,3,3,0,0,1-2.2.9A3.15,3.15,0,0,1,574.31,534.36Z" transform="translate(-7 -432.44)"/><path class="cls-1" d="M589.6,537h7.89l6.2,11a90.21,90.21,0,0,1,4.93,10.27h.11a113,113,0,0,1-.58-12.52V537h6.22v30h-7l-6.44-11.51a110.5,110.5,0,0,1-5.21-10.58h-.16q.3,5.54.3,13.13v9H589.6Z" transform="translate(-7 -432.44)"/><path class="cls-1" d="M620.46,560a15.81,15.81,0,0,0,7.53,1.89c3.16,0,4.74-1.08,4.74-3.26,0-1.61-1.66-3-5-4.19q-8.31-3-8.31-8.85a7.93,7.93,0,0,1,3-6.42,12.67,12.67,0,0,1,8.3-2.57,17.76,17.76,0,0,1,7.62,1.48L637,543.51a15.31,15.31,0,0,0-6.27-1.42,5.24,5.24,0,0,0-3.26.9,2.35,2.35,0,0,0-1.1,2,2.76,2.76,0,0,0,1.34,2.25,21.37,21.37,0,0,0,4.23,2q7.73,2.85,7.72,8.94a8.2,8.2,0,0,1-2.9,6.52q-3.27,2.79-9.15,2.79a17.35,17.35,0,0,1-8.47-1.86Z" transform="translate(-7 -432.44)"/><path class="cls-1" d="M649.56,542.72h-8.08V537h23v5.7h-8.16V567h-6.8Z" transform="translate(-7 -432.44)"/><path class="cls-1" d="M668.09,537h6.79v30h-6.79Z" transform="translate(-7 -432.44)"/><path class="cls-1" d="M679,552.36q0-7.29,4.91-11.56,4.65-4.08,12.19-4.08a20.33,20.33,0,0,1,8.33,1.42L703,543.62a17,17,0,0,0-6.94-1.31,10.19,10.19,0,0,0-7.12,2.41,9.27,9.27,0,0,0-2.88,7.29,9.67,9.67,0,0,0,2.69,7.2,9.09,9.09,0,0,0,6.77,2.61,8.54,8.54,0,0,0,3.31-.44V555.1h-4.57v-5.28h11.12V565.6a29.22,29.22,0,0,1-10,1.67q-8,0-12.2-4T679,552.36Z" transform="translate(-7 -432.44)"/><path class="cls-1" d="M763.08,537.37a57.88,57.88,0,0,1,9.15-.6q6.19,0,9.16,2.41a8.28,8.28,0,0,1,3.2,6.94,9.12,9.12,0,0,1-2.77,7.07q-3.36,3.16-9.7,3.17c-.31,0-1.08,0-2.33-.11v10.66h-6.71ZM769.79,551a11.67,11.67,0,0,0,2.25.17,6.19,6.19,0,0,0,4.22-1.32,4.25,4.25,0,0,0,1.59-3.53q0-4.41-5.29-4.41a14.26,14.26,0,0,0-2.77.16Z" transform="translate(-7 -432.44)"/><path class="cls-1" d="M788.65,537.37a58.73,58.73,0,0,1,9-.6q6.72,0,9.7,2.33a7.57,7.57,0,0,1,2.77,6.28,7.22,7.22,0,0,1-1.72,4.76,7.71,7.71,0,0,1-3.59,2.58v.16c1.9.75,3.23,2.62,4,5.59,1.46,5.3,2.28,8.12,2.46,8.44h-7a32.63,32.63,0,0,1-2.08-7,7.28,7.28,0,0,0-1.7-3.76,4.47,4.47,0,0,0-3.18-1h-2v11.78h-6.71ZM798,550.25a6.21,6.21,0,0,0,4-1.17,3.82,3.82,0,0,0,1.43-3.13q0-4.11-5-4.19a17.28,17.28,0,0,0-3.07.22v8.27Z" transform="translate(-7 -432.44)"/><path class="cls-1" d="M815,537H833.4v5.57H821.75v6.22h11v5.5h-11v7.1h12.31v5.56H815Z" transform="translate(-7 -432.44)"/><path class="cls-1" d="M838.66,537.37a57.88,57.88,0,0,1,9.15-.6q6.2,0,9.16,2.41a8.28,8.28,0,0,1,3.2,6.94,9.12,9.12,0,0,1-2.77,7.07q-3.36,3.16-9.7,3.17c-.31,0-1.08,0-2.33-.11v10.66h-6.71ZM845.37,551a11.67,11.67,0,0,0,2.25.17,6.19,6.19,0,0,0,4.22-1.32,4.25,4.25,0,0,0,1.59-3.53q0-4.41-5.29-4.41a14.26,14.26,0,0,0-2.77.16Z" transform="translate(-7 -432.44)"/><path class="cls-1" d="M866.78,537h8.87L885,566.91h-7.34l-2.31-7.67h-8.57l-2.14,7.67h-7Zm7.56,17.27-1.84-6.42c-.18-.62-.68-2.53-1.5-5.75h-.14l-1.34,5.75-1.76,6.42Z" transform="translate(-7 -432.44)"/><path class="cls-1" d="M888.92,537h6.79v29.95h-6.79Z" transform="translate(-7 -432.44)"/><path class="cls-1" d="M901.55,537.37a60.17,60.17,0,0,1,9.1-.6q8,0,12.3,3.18Q928,543.7,928,551.24q0,7.89-5,12.11-4.65,3.87-13.75,3.87a65.67,65.67,0,0,1-7.76-.41Zm6.74,24.45a22.21,22.21,0,0,0,2.41.11,10.06,10.06,0,0,0,7.38-2.55q2.76-2.68,2.76-7.92c0-3.09-.85-5.44-2.54-7.07a9.44,9.44,0,0,0-6.94-2.44,14.68,14.68,0,0,0-3.07.27Z" transform="translate(-7 -432.44)"/><circle class="cls-1" cx="491.96" cy="119.55" r="10.39"/><circle class="cls-1" cx="727.36" cy="119.55" r="10.39"/></svg>