<svg width="21" height="15" viewBox="0 0 21 15" fill="none" xmlns="http://www.w3.org/2000/svg">
<path d="M21 0H0V15H21V0Z" fill="url(#paint0_linear)"/>
<path d="M8.875 9.11932H10.8864V8.91477C10.8864 8.23722 11.206 7.89631 11.8239 7.53409C12.6548 7.0483 13.2216 6.43892 13.2216 5.40341C13.2216 3.80114 11.8707 3 10.0511 3C8.39347 3 7.01705 3.78409 7 5.65909H9.18182C9.18182 5.16903 9.57386 4.82386 10.0341 4.82386C10.4602 4.82386 10.8011 5.11364 10.8011 5.53977C10.8011 6.01705 10.3878 6.31108 9.84659 6.66477C9.21165 7.07813 8.875 7.51278 8.875 8.91477V9.11932ZM9.91477 11.983C10.5412 11.983 11.0994 11.4545 11.108 10.7898C11.0994 10.142 10.5412 9.61364 9.91477 9.61364C9.25426 9.61364 8.71307 10.142 8.72159 10.7898C8.71307 11.4545 9.25426 11.983 9.91477 11.983Z" fill="black"/>
<defs>
<linearGradient id="paint0_linear" x1="10.5" y1="0" x2="10.5" y2="15" gradientUnits="userSpaceOnUse">
<stop stop-color="white"/>
<stop offset="1" stop-color="#F0F0F0"/>
</linearGradient>
</defs>
</svg>
