<svg xmlns="http://www.w3.org/2000/svg" width="27.594" height="13.625" viewBox="0 0 27.594 13.625">
  <metadata><?xpacket begin="﻿" id="W5M0MpCehiHzreSzNTczkc9d"?>
<x:xmpmeta xmlns:x="adobe:ns:meta/" x:xmptk="Adobe XMP Core 5.6-c142 79.160924, 2017/07/13-01:06:39        ">
   <rdf:RDF xmlns:rdf="http://www.w3.org/1999/02/22-rdf-syntax-ns#">
      <rdf:Description rdf:about=""/>
   </rdf:RDF>
</x:xmpmeta>
                                                                                                    
                                                                                                    
                                                                                                    
                                                                                                    
                                                                                                    
                                                                                                    
                                                                                                    
                                                                                                    
                                                                                                    
                                                                                                    
                                                                                                    
                                                                                                    
                                                                                                    
                                                                                                    
                                                                                                    
                                                                                                    
                                                                                                    
                                                                                                    
                                                                                                    
                                                                                                    
                           
<?xpacket end="w"?></metadata>
<defs>
    <style>
      .cls-1 {
        fill: #eee;
        fill-rule: evenodd;
      }
    </style>
  </defs>
  <path id="SA" class="cls-1" d="M143.377,45.225a3.457,3.457,0,0,0-.726,1.877l0.009,0.105a3.007,3.007,0,0,0-1.16.694,2,2,0,0,0-.554,1.389,1.927,1.927,0,0,0,.246.941,2.058,2.058,0,0,0,.743.756,3.58,3.58,0,0,0,1.27.444,6.74,6.74,0,0,0,1.231.127l1.286-.1-0.716,1.26a8.88,8.88,0,0,0-1.414-.14,3.519,3.519,0,0,0-2.189.576,1.622,1.622,0,0,0-.738,1.27,1.454,1.454,0,0,0,.611,1.147,2.7,2.7,0,0,0,1.745.5,10.356,10.356,0,0,0,4.065-1.131q1.386,0.428,2.434.815a13.7,13.7,0,0,0,4.141-2.826,4.16,4.16,0,0,0,1.163-2.729,2.659,2.659,0,0,0-.373-1.384,3.553,3.553,0,0,0-1.029-1.09,4.535,4.535,0,0,0-1.564-.681,5.935,5.935,0,0,0-1.595-.193l-1.522.1,1.916-3.251a1.313,1.313,0,0,0,.217-0.49,0.2,0.2,0,0,0-.057-0.139,0.2,0.2,0,0,0-.147-0.061,0.214,0.214,0,0,0-.155.066,2,2,0,0,0-.226.347L150,43.936l-3.964-1.326A13.874,13.874,0,0,0,143.377,45.225Zm4.889,1.754q-2.062.175-2.653,0.175a1.964,1.964,0,0,1-1.34-.4,1.293,1.293,0,0,1-.444-1.011,1.426,1.426,0,0,1,.518-1.09,1.929,1.929,0,0,1,1.342-.466,4.8,4.8,0,0,1,1.359.233,14.941,14.941,0,0,1,2.149.916Zm-1.606,2.828a16.753,16.753,0,0,1-1.882.134,4.018,4.018,0,0,1-2.223-.457,1.059,1.059,0,0,1-.492-0.9,1.173,1.173,0,0,1,.632-1,1.714,1.714,0,0,0,.747.879,3.7,3.7,0,0,0,1.7.281,15.676,15.676,0,0,0,2.217-.163Zm1.169-1.26a18.809,18.809,0,0,1,2.186-.162,4.424,4.424,0,0,1,1.869.374,2.69,2.69,0,0,1,1.2,1,2.388,2.388,0,0,1,.392,1.279,2.947,2.947,0,0,1-.625,1.82,6.409,6.409,0,0,1-1.778,1.539l-1.787-.471a9.335,9.335,0,0,0,2.472-1.448,1.708,1.708,0,0,0,.576-1.2,1.545,1.545,0,0,0-.589-1.21,2.544,2.544,0,0,0-1.7-.506q-0.816,0-2.914.207Zm-1.64,2.874q0.6,0,2.518-.2a10.122,10.122,0,0,1,1.159-.082,0.9,0.9,0,0,1,.632.229,0.685,0.685,0,0,1,.248.511q0,0.907-2.125,1.876-1.341-.464-1.863-0.619t-1.352-.337Zm-3.116,4.25a2.325,2.325,0,0,1-1.327-.316,0.6,0.6,0,0,1-.29-0.519,0.625,0.625,0,0,1,.29-0.519A1.862,1.862,0,0,1,142.889,54a11.781,11.781,0,0,1,3.585.729,8.672,8.672,0,0,1-3.4.941h0Zm23.579-12.6a6.856,6.856,0,0,0-.912.822,6.683,6.683,0,0,0-4.052-1.459,6.082,6.082,0,0,0-2.667.624,4.411,4.411,0,0,0-1.942,1.7,4.49,4.49,0,0,0-.646,2.347,3.824,3.824,0,0,0,.514,1.969,6.669,6.669,0,0,0,1.788,1.837l-1.256,1.714c-0.053.076-.112,0.158-0.176,0.246a6.119,6.119,0,0,0-.717,1.138,2.286,2.286,0,0,0-.241.945,0.942,0.942,0,0,0,.193.615,0.418,0.418,0,0,0,.352.176,0.413,0.413,0,0,0,.3-0.119,0.383,0.383,0,0,0,.124-0.286,1.38,1.38,0,0,0-.22-0.483,0.968,0.968,0,0,1-.167-0.5,0.407,0.407,0,0,1,.132-0.325,0.619,0.619,0,0,1,.43-0.158q1.031,0,3.872,1.872l3.4-2.575a3.989,3.989,0,0,0,.329,1.714,2.087,2.087,0,0,0,.989.861l0.545-.447,1.635-1.394L168,53.579a1.523,1.523,0,0,1-.789.51,0.425,0.425,0,0,1-.359-0.237,3.171,3.171,0,0,1-.228-1.415l-0.149-6.565q-0.009-.4-0.009-0.633a3.781,3.781,0,0,1,.123-1.112,1.7,1.7,0,0,1,.426-0.675,3.506,3.506,0,0,1,.936-0.608l-0.171-.409A6.67,6.67,0,0,0,166.652,43.072Zm-3.84,2.28a3.987,3.987,0,0,0-1.4-.3,2.32,2.32,0,0,0-1.138.3,2.071,2.071,0,0,0-.817.782,1.7,1.7,0,0,0-.276.756,0.185,0.185,0,0,0,.049.132,0.146,0.146,0,0,0,.1.053,0.237,0.237,0,0,0,.176-0.141,1.393,1.393,0,0,1,1.193-.686,2.515,2.515,0,0,1,1.184.36l-2.938,4.011A3.925,3.925,0,0,1,157,47.433a3.094,3.094,0,0,1,.51-1.664,3.705,3.705,0,0,1,1.538-1.326,4.848,4.848,0,0,1,2.2-.514,4.963,4.963,0,0,1,2.206.545Zm1.882,4.58h-4.723l3.837-5.237a5.1,5.1,0,0,1,.439.325q0.087,0.079.342,0.36Zm0.035,1.283,0.036,1.481L162.7,54.231l-4.466-1.925,0.8-1.091h5.7Z" transform="translate(-140.656 -42.438)"/>
</svg>
