<svg version="1" xmlns="http://www.w3.org/2000/svg" width="1333.333" height="1333.333" viewBox="0 0 1000.000000 1000.000000"><path d="M56.9.4c-.2.2-2.2.6-4.4.9-6.1.8-14.4 3.6-21 7C25 11.8 13.8 22.2 9.8 28.5 6.4 34 2.4 44.4 1.1 51c-.9 5.1-.8 23.7.3 30.5.2 1.6.7 5.9 1.1 9.5.4 3.6.8 7.6 1 9 .8 5.1 1.5 10.6 1.9 15.5 1 9.3 2.7 24 3.1 26.5.2 1.4.6 5.4 1 9 .4 3.6.9 7.8 1.1 9.5.2 1.6.6 5.2.9 8 .3 2.7.7 6.6 1 8.5.3 1.9.7 5.7 1 8.5.9 9.1 1.7 16 2 18.5.5 2.8 1 7.1 2.5 21 .6 5.2 1.3 11.1 1.5 13 1 8.4 1.5 12.8 2 17.5.8 7.6 1.5 13.5 2.2 19 .4 2.7.7 5.9.8 7 1 9.8 1.6 15.4 2 17.5.2 1.4.7 5.2 1 8.5.3 3.3.8 7.1 1 8.5.2 1.4.6 5.4 1 9 .4 3.6.8 7.8 1 9.5.2 1.6.7 5.5 1 8.5.3 3 .8 6.6 1 8 .2 1.4.6 5.2.9 8.5.4 3.3.8 7.6 1.1 9.5.2 1.9.7 5.7 1 8.5 1.1 9.9 1.5 13.1 2.6 22 .6 4.9 1.2 10.8 1.4 13 .2 2.2.6 5.9.9 8.2.7 5.4 3.3 28.1 4.1 35.3.3 3 .8 6.6 1 8 .2 1.4.7 5.4 1 9 .4 3.6.9 7.8 1.1 9.5.2 1.6.6 5.2.9 8 .3 2.7.8 6.6 1 8.5.3 1.9.8 6.2 1.1 9.5.4 3.3.8 7.1.9 8.5.1 1.4.6 5 .9 8 .7 5.6 1 8 2.1 18 1.1 9.8 1.6 13.4 2 16 .2 1.4.7 5.9 1 10 .4 4.1.8 8.2 1 9 .2.8.7 4.4 1 8 .3 3.6.8 7.2 1 8 .2.8.6 4.6 1 8.5.3 3.8.8 8.1 1 9.5.2 1.4.7 5.2 1 8.5.3 3.3.8 7.3 1 9 .3 1.6.7 5.2 1 8 .3 2.7.7 6.8 1 9 .2 2.2.7 6.7 1.1 10 .4 3.3.8 7.1 1 8.5.2 2.2 1 9.2 1.9 17.5 1 8.5 1.6 14.3 2 17.5.3 1.9.7 5.5 1 8 .3 2.5.7 6.1.9 8 .3 1.9.8 6.2 1.1 9.5.3 3.3.8 7.1 1 8.5.2 1.4.6 5 .9 8 .3 3 .9 7.7 1.2 10.5.7 5.8.9 7.8 1.8 16 .4 3.3.9 7.3 1.1 9 .2 1.6.7 5.7 1 9 .3 3.3.8 7.1 1 8.5.3 1.4.7 5 1 8 .5 5.3 2.2 20.3 3 26.5.2 1.6.7 5.9 1 9.5.8 8.2 3.2 20.1 5.2 26 10.4 30.9 38.9 58.4 70.8 68.3 10.9 3.4 14.3 3.9 43 6.2 10.7.9 18.9 1.6 24 2 2.8.2 8.6.7 13 1.1 4.4.3 9.8.8 12 1 2.2.2 7.4.6 11.5.9 4.1.3 9.5.7 12 1 2.5.2 7.9.7 12 1 4.1.3 9.5.8 12 1 2.5.3 8.1.7 12.5 1 4.4.3 9.6.7 11.5 1 1.9.2 7.1.7 11.5 1 4.4.4 10 .8 12.5 1 2.5.2 7.9.6 12 1 4.1.3 10 .8 13 1 9.6.9 23.8 2.1 35 3 3.6.3 8.8.7 11.5 1 2.8.2 8.6.7 13 1 4.4.4 9.6.8 11.5 1 1.9.2 6.9.6 11 .9 4.1.4 10 .9 13 1.1 3 .3 8.3.7 11.8 1 14.5 1.2 24.6 2 36.2 3 3 .3 8.4.7 12 1 7.3.6 15.9 1.3 24 2 3 .2 8.3.7 11.8 1 3.4.3 8.8.7 12 1 3.1.3 8.5.7 12 1 3.4.3 8.9.7 12.2 1 3.3.3 8.7.7 12 1 3.3.3 8.8.7 12.3 1 3.4.3 8.8.7 12 1 3.1.3 8.5.7 12 1 3.4.3 8.7.8 11.7 1 3 .3 8.3.7 11.8 1 11.2.9 27.8 2.3 36.2 3 3 .3 8.4.7 12 1 3.6.3 9.2.7 12.5 1 3.3.3 8.6.8 11.7 1 6.6.6 15.2 1.3 23.8 2 3.3.3 8.6.7 11.8 1 6.2.5 14.5 1.2 24.5 2 3.4.3 8.7.7 11.7 1 3 .3 8.9.8 13 1.1 4.1.3 9.1.7 11 .9 1.9.1 7.3.6 12 .9 4.7.4 10.1.9 12 1.1 1.9.2 7.6.7 12.5 1 5 .4 10.1.8 11.5 1 1.4.2 6.6.7 11.6 1 5.1.4 10.5.8 12 1 10.9 1.4 28.7 1.4 35.5 0 24.3-5.1 43.3-24.7 47.7-49.5 1-5.2.9-26.1-.1-30.5-.3-1.1-.8-5.8-1.2-10.5-.4-4.7-.8-8.7-1-9-.2-.3-.6-4.3-1-8.9-.4-4.7-.8-9.2-1-10.2-.2-1-.6-4.9-1-8.6-.3-3.7-.8-8.4-1.1-10.4-.2-2-.6-5.4-.8-7.5-.3-2.1-.8-6.8-1.1-10.4-.4-3.6-.9-8.1-1.1-10-.6-6.9-1.5-14.5-1.9-17-.2-1.4-.6-5.7-1-9.5-.7-8-1.4-14.4-2-19.5-.3-1.9-.7-6.2-1-9.5-.3-3.3-.8-7.6-1-9.5-.9-7.7-2.5-22.8-3-28-.3-3-.7-7.1-1-9-.3-1.9-.7-6-1-9-.7-7.8-1.5-15.1-2-18-.2-1.4-.6-5.7-1-9.5-.3-3.9-.7-8.1-1-9.5-.2-1.4-.7-5.7-1-9.5-.4-3.9-.8-8.4-1-10-.2-1.7-.7-5.7-1-9-.3-3.3-.8-7.4-1-9-.2-1.7-.7-6.2-1-10-.4-3.9-.8-8.4-1-10-1.2-9.9-1.9-16.1-2.9-26.5-.6-5.7-1.6-15.2-2.1-19.5-.3-2.2-.7-6.3-1-9-.3-2.8-.7-6.8-1-9-.7-5.7-1.6-14.4-3-29-.3-3.3-.8-7.4-1-9-.2-1.7-.7-6.2-1-10-.3-3.9-.8-7.7-1-8.5-.2-.8-.7-5.1-1.1-9.5-.3-4.4-.8-8.8-1-9.8-.2-1-.6-4.8-.9-8.5-.3-3.7-.8-8.3-1-10.2-.3-1.9-.7-6.2-1.1-9.5-.3-3.3-.7-7.1-.9-8.5-.2-1.4-.7-5.4-1-9-.3-3.6-.8-8.1-1-10-.2-1.9-.7-6-1-9-.9-9.5-1.6-15.4-2-18-.2-1.4-.7-5.6-1-9.4-.3-3.8-.8-8.4-1.1-10.2-.2-1.9-.6-6-.9-9.1-.2-3.2-.7-7.4-.9-9.3-.3-1.9-.8-6.2-1.1-9.4-.3-3.3-.8-7.3-1-9-.3-1.7-.7-5.6-1-8.6-.2-3-.7-7.7-1-10.3-.3-2.7-.8-6.7-1-9-.2-2.3-.8-8.9-1.5-14.7-.6-5.8-1.3-12.3-1.5-14.5-.5-4.7-1.4-12.6-2-17.5-.3-1.9-.7-6.2-1-9.6-.3-3.3-.7-6.9-.9-8-.2-1-.7-5.5-1-9.9-.4-4.4-.9-9.1-1.1-10.5-.2-1.4-.6-5.2-1-8.5-.3-3.3-.8-7.8-1-10-.3-2.2-.7-6-.9-8.5-1.2-10.4-1.8-13.9-3.7-20.9-7.3-27-29.2-53.7-54.9-67-12.2-6.3-25.3-9.8-43-11.6-3-.4-6.2-.8-7-1-.8-.3-3.5-.7-6-1-3.9-.5-10.2-1.4-20-3-1.4-.2-4.5-.7-7-1-4.2-.6-14.3-2.1-20-3-1.4-.2-6.3-.9-11-1.5s-9.8-1.3-11.5-1.6c-3.2-.6-6.6-1.1-13-1.9-2.2-.3-6.7-1-10-1.5s-8.2-1.2-11-1.6c-2.7-.3-5.9-.8-7-1-3-.6-11.3-1.8-20-2.9-2.2-.3-6.5-1-9.5-1.5s-8-1.2-11-1.5c-3-.3-6.2-.8-7-1-.8-.2-3.3-.6-5.5-1-8.6-1.1-24.5-3.4-34-4.9-5.5-.8-12.5-1.8-15.5-2.1-3-.4-5.7-.8-6-1-.3-.2-3.2-.6-6.5-.9-3.3-.4-6.7-.9-7.5-1.1-.8-.2-3.5-.6-6-.9-2.5-.3-5.4-.8-6.5-1-1.8-.3-9.8-1.5-15-2.1-1.1-.2-6.9-1-13-2-6-.9-12.6-1.8-14.5-2.1-5-.7-11.2-1.6-13.5-2-1.1-.2-3.6-.6-5.5-.8-1.9-.3-10-1.4-18-2.6-8-1.2-15.6-2.3-17-2.5-4.2-.5-11.4-1.6-14-2-2-.3-18.7-2.8-34-5-1.4-.2-4.5-.6-7-1s-5.8-.9-7.5-1.1c-1.6-.2-4.1-.6-5.5-.9-1.4-.2-4.7-.7-7.5-1-2.7-.3-5.7-.8-6.5-1-.8-.2-3.7-.6-6.5-1-5.4-.7-9.9-1.3-15.5-2.1-1.9-.3-5-.7-6.9-1-1.9-.2-4.6-.6-6-.9-1.4-.2-7.5-1.1-13.6-2-6-.9-12.1-1.8-13.5-2-3.3-.5-11.1-1.7-13-2-.8-.1-4.2-.6-7.5-1-3.2-.4-6.8-.9-7.9-1.1-1.1-.2-3.8-.6-6.1-.9-2.2-.3-5.1-.8-6.5-1-1.4-.3-4.5-.7-6.9-1-2.3-.3-5.5-.7-7-1-1.4-.2-10.7-1.6-20.6-3-9.9-1.4-19.1-2.8-20.5-3-1.4-.2-4.5-.6-7-1-6.7-1-8.8-1.3-16-2.4-3.6-.6-8.7-1.3-11.5-1.6-2.7-.3-6.3-.8-8-1.1-1.6-.3-4.1-.7-5.5-.9-1.4-.2-7.4-1-13.5-1.9-6-.9-12.8-1.9-15-2.2-2.2-.3-4.7-.7-5.5-.9-.8-.2-4-.6-7-1-3-.3-7.7-1-10.5-1.5-2.7-.5-7.2-1.2-10-1.5-2.7-.3-5.7-.8-6.5-1-.8-.2-3.7-.6-6.5-1-5.7-.7-16.8-2.3-20.5-3.1C79.6.8 57.5-.1 56.9.4z"/></svg>