<svg width="512" height="512" viewBox="0 0 512 512" fill="none" xmlns="http://www.w3.org/2000/svg">
<mask id="mask0" mask-type="alpha" maskUnits="userSpaceOnUse" x="0" y="0" width="512" height="512">
<path fill-rule="evenodd" clip-rule="evenodd" d="M40.3108 0.495497L427.544 57.0333C449.747 60.2749 469.613 81.2467 472.037 103.878L511.76 474.734C514.15 497.064 498.447 513.687 476.566 511.863L95.0943 480.101C70.654 478.066 48.5091 457.12 45.7704 433.305L0.282897 37.6656C-2.49424 13.5121 15.4921 -3.12807 40.3108 0.495497Z" fill="#498205"/>
</mask>
<g mask="url(#mask0)">
<g filter="url(#filter0_i)">
<path fill-rule="evenodd" clip-rule="evenodd" d="M40.3108 0.495497L427.544 57.0333C449.747 60.2749 469.613 81.2467 472.037 103.878L511.76 474.734C514.15 497.064 498.447 513.687 476.566 511.863L95.0943 480.101C70.654 478.066 48.5091 457.12 45.7704 433.305L0.282897 37.6656C-2.49424 13.5121 15.4921 -3.12807 40.3108 0.495497Z" fill="#008736"/>
</g>
<path opacity="0.15" fill-rule="evenodd" clip-rule="evenodd" d="M25.2275 54.0783L25.2275 54.0783L67.0724 418.036C69.3088 437.482 87.6904 454.991 107.894 456.673L458.818 485.891C467.475 486.613 474.595 483.695 479.333 478.691C484.084 473.674 486.766 466.209 485.807 457.251L449.266 116.092C447.272 97.4828 430.694 80.0575 412.585 77.4137L56.3604 25.4034C46.2151 23.9221 37.9556 26.6241 32.552 31.6362C27.1727 36.6257 24.1116 44.3728 25.2275 54.0783ZM20.2602 54.6494L62.1052 418.607C64.6246 440.514 84.9962 459.784 107.479 461.655L458.403 490.874C478.533 492.552 492.978 477.26 490.779 456.718L454.238 115.56C452.007 94.7406 433.732 75.4482 413.307 72.4661L57.0828 20.4558C34.2516 17.1224 17.7055 32.43 20.2602 54.6494Z" fill="#F1F2F2"/>
<path fill-rule="evenodd" clip-rule="evenodd" d="M143 158L256 354.18L369 158H218.43L255.998 223.524L274.832 191.089H312.302L256 288.525L180.764 158H143Z" fill="#F1F2F2"/>
</g>
<defs>
<filter id="filter0_i" x="0" y="0" width="512" height="512" filterUnits="userSpaceOnUse" color-interpolation-filters="sRGB">
<feFlood flood-opacity="0" result="BackgroundImageFix"/>
<feBlend mode="normal" in="SourceGraphic" in2="BackgroundImageFix" result="shape"/>
<feColorMatrix in="SourceAlpha" type="matrix" values="0 0 0 0 0 0 0 0 0 0 0 0 0 0 0 0 0 0 127 0" result="hardAlpha"/>
<feOffset/>
<feGaussianBlur stdDeviation="10"/>
<feComposite in2="hardAlpha" operator="arithmetic" k2="-1" k3="1"/>
<feColorMatrix type="matrix" values="0 0 0 0 0 0 0 0 0 0.580392 0 0 0 0 0.196078 0 0 0 1 0"/>
<feBlend mode="normal" in2="shape" result="effect1_innerShadow"/>
</filter>
</defs>
</svg>
