<svg width="512" height="512" viewBox="0 0 512 512" fill="none" xmlns="http://www.w3.org/2000/svg">
<mask id="mask0" mask-type="alpha" maskUnits="userSpaceOnUse" x="0" y="0" width="512" height="512">
<path fill-rule="evenodd" clip-rule="evenodd" d="M40.3108 0.495497L427.544 57.0333C449.747 60.2749 469.613 81.2467 472.037 103.878L511.76 474.734C514.15 497.064 498.447 513.687 476.566 511.863L95.0943 480.101C70.654 478.066 48.5091 457.12 45.7704 433.305L0.282897 37.6656C-2.49424 13.5121 15.4921 -3.12807 40.3108 0.495497Z" fill="#498205"/>
</mask>
<g mask="url(#mask0)">
<path fill-rule="evenodd" clip-rule="evenodd" d="M40.3108 0.495497L427.544 57.0333C449.747 60.2749 469.613 81.2467 472.037 103.878L511.76 474.734C514.15 497.064 498.447 513.687 476.566 511.863L95.0943 480.101C70.654 478.066 48.5091 457.12 45.7704 433.305L0.282897 37.6656C-2.49424 13.5121 15.4921 -3.12807 40.3108 0.495497Z" fill="#2D2D2D"/>
<path opacity="0.2" d="M458.611 488.383L458.403 490.874L458.611 488.383L107.687 459.164C86.3433 457.387 66.9667 438.998 64.5888 418.322L22.7439 54.3638L20.2602 54.6494L22.7439 54.3638C21.5472 43.9563 24.8267 35.3918 30.8519 29.8033C36.8892 24.2034 45.9411 21.3556 56.7216 22.9296L412.946 74.9399C432.213 77.7528 449.639 96.1117 451.752 115.826L488.293 456.985C489.322 466.599 486.45 474.811 481.149 480.41C475.853 486.002 467.971 489.163 458.611 488.383Z" stroke="#F1F2F2" stroke-width="5"/>
<path fill-rule="evenodd" clip-rule="evenodd" d="M143 158L256 354.18L369 158H218.43L255.998 223.524L274.832 191.089H312.302L256 288.525L180.764 158H143Z" fill="#F1F2F2"/>
</g>
</svg>
