<svg xmlns="http://www.w3.org/2000/svg" xmlns:xlink="http://www.w3.org/1999/xlink" viewBox="0 0 161.21 66.97"><defs><style>.cls-1{mask:url(#mask);}.cls-2{fill:url(#linear-gradient);}.cls-3{fill:url(#linear-gradient-2);}.cls-4{fill:url(#linear-gradient-3);}.cls-5,.cls-6{fill:#35507c;}.cls-5{opacity:0.18;}.cls-6{opacity:0.62;}.cls-7{fill:url(#linear-gradient-4);}.cls-8{fill:#425e92;}.cls-9{fill:#d4d4d4;}.cls-10{fill:#456599;}.cls-11{fill:#fff;}.cls-12{filter:url(#luminosity-noclip);}</style><filter id="luminosity-noclip" x="82.57" y="-8219.67" width="66.3" height="32766" filterUnits="userSpaceOnUse" color-interpolation-filters="sRGB"><feFlood flood-color="#fff" result="bg"/><feBlend in="SourceGraphic" in2="bg"/></filter><mask id="mask" x="82.57" y="-8219.67" width="66.3" height="32766" maskUnits="userSpaceOnUse"><g class="cls-12"/></mask><linearGradient id="linear-gradient" x1="78.85" y1="28.52" x2="144.63" y2="28.52" gradientTransform="translate(-0.63 16.49) rotate(-11.44)" gradientUnits="userSpaceOnUse"><stop offset="0" stop-color="#0cc3f6"/><stop offset="1" stop-color="#0c81f6"/></linearGradient><linearGradient id="linear-gradient-2" x1="87.28" y1="21.07" x2="158.31" y2="21.07" gradientUnits="userSpaceOnUse"><stop offset="0" stop-color="#3c59a1"/><stop offset="1" stop-color="#3c5987"/></linearGradient><linearGradient id="linear-gradient-3" x1="93.52" y1="22.14" x2="152.07" y2="22.14" gradientUnits="userSpaceOnUse"><stop offset="0.43" stop-color="#3c5987"/><stop offset="0.86" stop-color="#3c59a1"/></linearGradient><linearGradient id="linear-gradient-4" x1="83.55" y1="26.06" x2="153.74" y2="26.06" gradientTransform="matrix(1, 0, 0, 1, 0, 0)" xlink:href="#linear-gradient"/></defs><title>logo</title><g id="Calque_2" data-name="Calque 2"><g id="Layer_1" data-name="Layer 1"><g class="cls-1"><path class="cls-2" d="M148.43,24a17.61,17.61,0,0,1-.85,10.64,11.14,11.14,0,0,1-2.06,3.16l-7.85-1L116.2,33.93l-2.51-.33-3.1-.4-4-.52L87.77,30.14l-5.2-.07c.88-5.39,3.85-9.52,7.73-10.35a7.59,7.59,0,0,1,3.19,0c1.38-5.08,4.62-8.86,9-9.71A9.75,9.75,0,0,1,106,10c1.88-5.15,5.48-8.88,10.18-9.79C123-1.11,130.09,3.88,134,12a6.81,6.81,0,0,1,1.14-.31,7.84,7.84,0,0,1,3.09,0c3.89.79,7.53,4.38,9.39,9.37A20.29,20.29,0,0,1,148.43,24Z"/></g><path class="cls-3" d="M158.31,28c0,.18,0,.35,0,.53a.22.22,0,0,1,0,.08v.06a15.41,15.41,0,0,1-.17,1.81c0,.19,0,.37-.08.55-.11.59-.24,1.15-.4,1.7a12.15,12.15,0,0,1-.65,1.81l0,.09h0a13.53,13.53,0,0,1-1.69,2.9l-.27.33A10.59,10.59,0,0,1,152.59,40a8.57,8.57,0,0,1-4.69,1.49H103.06v0c-8.79-.39-15.78-6.3-15.78-13.53a11.37,11.37,0,0,1,1.45-5.52A12.36,12.36,0,0,1,89.8,20.8a.64.64,0,0,1,.1-.13l0-.05c3-3.75,8.14-6.23,14-6.23.45,0,.89,0,1.33,0,2.41-4.39,6.37-7.26,10.86-7.26a10.68,10.68,0,0,1,3.43.57c2.91-4.35,7.21-7.12,12-7.12,7,0,12.87,5.79,15,13.85a7.72,7.72,0,0,1,1.18-.09,8.4,8.4,0,0,1,3,.57l.34.14h0a10,10,0,0,1,3.3,2.36,13.15,13.15,0,0,1,2.1,3,16,16,0,0,1,.89,2.12q.24.72.42,1.5c.08.35.15.7.21,1.07A18.12,18.12,0,0,1,158.31,28Z"/><path class="cls-4" d="M152.07,28a13.68,13.68,0,0,1-2.51,8.14,7.81,7.81,0,0,1-6.07,3.43h-37v0c-7.25-.34-13-5.38-13-11.55a10.2,10.2,0,0,1,2.08-6.11l.08-.11a14.52,14.52,0,0,1,11.62-5.35c.37,0,.74,0,1.1,0,2-3.74,5.25-6.19,8.95-6.19a8.46,8.46,0,0,1,2.83.49c2.4-3.72,5.94-6.08,9.9-6.08,5.74,0,10.6,5,12.36,11.82a6.24,6.24,0,0,1,1-.07,6.81,6.81,0,0,1,2.49.48c3,1.21,5.34,4.54,6,8.7A15.54,15.54,0,0,1,152.07,28Z"/><polygon class="cls-5" points="144.87 27.86 142.12 25.24 144.87 22.61 147.62 25.24 144.87 27.86"/><polygon class="cls-5" points="144.87 22.73 142.12 20.1 144.87 17.48 147.62 20.1 144.87 22.73"/><polygon class="cls-5" points="150.25 27.9 147.51 25.27 150.25 22.65 153 25.27 150.25 27.9"/><polygon class="cls-5" points="150.25 22.76 147.51 20.14 150.25 17.51 153 20.14 150.25 22.76"/><polygon class="cls-5" points="144.74 38.41 142 35.78 144.74 33.16 147.49 35.78 144.74 38.41"/><polygon class="cls-5" points="144.87 33.27 142.12 30.65 144.87 28.02 147.62 30.65 144.87 33.27"/><polygon class="cls-5" points="150.12 38.45 147.38 35.82 150.12 33.2 152.87 35.82 150.12 38.45"/><polygon class="cls-5" points="150.25 33.31 147.51 30.68 150.25 28.06 153 30.68 150.25 33.31"/><path class="cls-5" d="M157.46,24.25c.16.52.3,1.06.42,1.61l-2.12,2L153,25.26l2.68-2.57.06-.06.06.06Z"/><polygon class="cls-6" points="158.51 25.26 158.43 25.33 158.4 25.29 158.48 25.22 158.51 25.26"/><path class="cls-5" d="M154.47,18.74a13.94,13.94,0,0,1,2.1,3.23l-.81.77-.06,0L153,20.12Z"/><polygon class="cls-6" points="158.51 20.12 158.43 20.19 158.4 20.16 158.48 20.09 158.51 20.12"/><polygon class="cls-6" points="158.51 25.26 158.43 25.33 158.4 25.29 158.48 25.22 158.51 25.26"/><rect class="cls-6" x="161.11" y="23.73" width="0.08" height="0.08" transform="translate(25.46 113.9) rotate(-41.98)"/><polygon class="cls-6" points="158.51 20.12 158.43 20.19 158.4 20.16 158.48 20.09 158.51 20.12"/><rect class="cls-6" x="161.11" y="23.73" width="0.08" height="0.08" transform="translate(25.46 113.9) rotate(-41.98)"/><path class="cls-5" d="M157,34.49l0,.09h0a13.53,13.53,0,0,1-1.69,2.9l-.27.33-2.11-2,2.75-2.62.06.06Z"/><polygon class="cls-6" points="158.38 35.8 158.31 35.88 158.27 35.84 158.35 35.77 158.38 35.8"/><path class="cls-5" d="M155.64,28l2.49,2.39c0,.19,0,.37-.08.55l-2.35,2.26-.06,0-.07,0L153,30.73l-.06-.07Z"/><polygon class="cls-5" points="132.76 16.28 130.01 13.66 132.76 11.03 135.5 13.66 132.76 16.28"/><polygon class="cls-5" points="132.76 11.15 130.01 8.52 132.76 5.9 135.5 8.52 132.76 11.15"/><polygon class="cls-5" points="138.14 16.32 135.39 13.7 138.14 11.07 140.88 13.7 138.14 16.32"/><polygon class="cls-5" points="138.14 11.18 135.39 8.56 138.14 5.93 140.88 8.56 138.14 11.18"/><polygon class="cls-5" points="132.63 26.83 129.88 24.2 132.63 21.58 135.37 24.2 132.63 26.83"/><polygon class="cls-5" points="132.76 21.69 130.01 19.07 132.76 16.44 135.5 19.07 132.76 21.69"/><polygon class="cls-5" points="138.01 26.87 135.26 24.24 138.01 21.61 140.76 24.24 138.01 26.87"/><polygon class="cls-5" points="138.14 21.73 135.39 19.11 138.14 16.48 140.88 19.11 138.14 21.73"/><path class="cls-5" d="M145.34,12.67a13.72,13.72,0,0,1,.42,1.62l-2.11,2-2.75-2.62,2.69-2.57.06-.06.06.06Z"/><path class="cls-5" d="M142.35,7.16a13.49,13.49,0,0,1,2.1,3.24l-.8.77-.06-.06L140.9,8.54Z"/><path class="cls-5" d="M144.89,22.91l0,.09h0a13.56,13.56,0,0,1-1.7,2.9,4.19,4.19,0,0,1-.26.33l-2.11-2,2.74-2.62.06.06Z"/><path class="cls-5" d="M143.52,16.46l2.5,2.39a4.85,4.85,0,0,1-.09.55l-2.35,2.26-.06.05-.06-.05-2.62-2.51-.06-.06Z"/><polygon class="cls-6" points="158.38 35.8 158.31 35.88 158.27 35.84 158.35 35.77 158.38 35.8"/><rect class="cls-6" x="160.98" y="34.76" width="0.09" height="0.09" transform="translate(22.58 124.1) rotate(-45.02)"/><rect class="cls-6" x="160.98" y="34.76" width="0.09" height="0.09" transform="translate(22.58 124.1) rotate(-45.02)"/><path class="cls-7" d="M85.9,24.29a1,1,0,0,1,.76-1,8.07,8.07,0,0,1,1.22-.22c.8-.1,1.49-.27,2.3-.45s1.56-.31,2.38-.41S94.19,22,95,22a29.53,29.53,0,0,1,5,.06,20.08,20.08,0,0,1,5,1.13,16.63,16.63,0,0,1,2.42,1.14,23.8,23.8,0,0,1,2.11,1.43c1.24.86,2.52,1.69,3.82,2.46a44,44,0,0,0,4,2.09c.67.3,1.33.58,2,.83.34.12.65.24,1,.36s.66.2,1,.28a21.42,21.42,0,0,0,4.16.51l.6,0h.41l1.19,0h.49l.54,0,1.06-.12,1.06-.17.51-.1.58-.13c.65-.14,1.38-.35,2.06-.56a26,26,0,0,0,4-1.67,28.45,28.45,0,0,0,7.13-5.3,32.25,32.25,0,0,0,3-3.49c.46-.64.87-1.22,1.33-2s.78-1.37,1.19-2l0,0c.28-.55.56-1.11.85-1.66-.09.62-.21,1.23-.32,1.85l0,.05c-.2.79-.43,1.55-.65,2.33a19.66,19.66,0,0,1-.85,2.25,26,26,0,0,1-2.42,4.3,28,28,0,0,1-3.22,3.84,25.41,25.41,0,0,1-4,3.19,26.1,26.1,0,0,1-4.54,2.37,23.7,23.7,0,0,1-2.46.84l-.58.16-.64.17c-.42.1-.84.19-1.27.27s-.85.14-1.29.2l-.63.07-.7,0-1.18.08-.3,0h-1.06a23.22,23.22,0,0,1-5.24-.63c-.44-.12-.86-.24-1.29-.39s-.81-.29-1.21-.44a23.85,23.85,0,0,1-2.35-1A37.73,37.73,0,0,1,110.91,32a44,44,0,0,1-4-3c-.73-.61-1.11-1-1.69-1.39a13.05,13.05,0,0,0-1.77-1.08,21.79,21.79,0,0,0-4.06-1.51,33.91,33.91,0,0,0-4.47-.8c-1.53-.2-3.08-.25-4.65-.33a20,20,0,0,1-2.43-.14C87.11,23.72,86.25,23.43,85.9,24.29Z"/><path class="cls-8" d="M6.6,50c3.87,0,6.1,2.12,6.1,5.86,0,3.94-2.23,6.22-6.1,6.22H3.85v4.72H0V50ZM3.85,58.69H6.4A2.43,2.43,0,0,0,9.07,56,2.39,2.39,0,0,0,6.4,53.33H3.85Z"/><path class="cls-8" d="M31,58.35c0,4.9-3.5,8.62-8.2,8.62s-8.18-3.7-8.18-8.62,3.51-8.52,8.18-8.52A8.16,8.16,0,0,1,31,58.35Zm-12.44,0c0,2.84,2,5,4.28,5s4.2-2.18,4.2-5-1.86-5-4.2-5S18.54,55.54,18.54,58.37Z"/><path class="cls-8" d="M46.75,66.77,43.94,55.16,41.08,66.77h-4l-5-16.8h4.12l3,12.36L42.12,50h3.76l3,12.36L51.77,50h3.94l-5,16.8Z"/><path class="cls-8" d="M61.8,53.33v3.34H69V60H61.8v3.38h8.25v3.36H58V50H69.81v3.36Z"/><path class="cls-8" d="M80.3,62.05h-3v4.72H73.42V50h6.77c4,0,6.3,2.12,6.3,5.86,0,2.57-1,4.42-2.75,5.4l3.18,5.54H82.55Zm-.11-3.36A2.42,2.42,0,0,0,82.83,56a2.37,2.37,0,0,0-2.64-2.64H77.27v5.36Z"/><path class="cls-9" d="M106,66.77V60.25H99.72v6.52H95.87V50h3.85v6.92H106V50h3.85v16.8Z"/><path class="cls-9" d="M129.14,58.35c0,4.9-3.5,8.62-8.2,8.62s-8.17-3.7-8.17-8.62,3.5-8.52,8.17-8.52A8.16,8.16,0,0,1,129.14,58.35Zm-12.44,0c0,2.84,2,5,4.29,5s4.19-2.18,4.19-5-1.86-5-4.19-5S116.7,55.54,116.7,58.37Z"/><path class="cls-9" d="M143.85,51.65,142.4,55a10.53,10.53,0,0,0-4.84-1.75c-1,0-1.67.41-1.67,1.22,0,2.91,8,1.25,8,7.32,0,3.36-2.69,5.14-6.06,5.14a10.66,10.66,0,0,1-6.93-2.69l1.5-3.29a9,9,0,0,0,5.47,2.52c1.21,0,2-.5,2-1.46,0-3-8-1.2-8-7.15,0-3.1,2.41-5.07,6-5.07A10.6,10.6,0,0,1,143.85,51.65Z"/><path class="cls-9" d="M153.89,53.41V66.77H150V53.41h-4.52V50h12.94v3.46Z"/><path class="cls-10" d="M151.41,28.06s-4.27,6.14-10.65,6.63,9.49,3.06,9.49,3.06,6.44-6.58,4.7-8.08A6.58,6.58,0,0,0,151.41,28.06Z"/><path class="cls-11" d="M112.92,21.53l.33-.2c.23-.13.53-.34,1-.55s1-.48,1.57-.73a13,13,0,0,1,2.16-.72,9.18,9.18,0,0,1,2.84-.32,5.38,5.38,0,0,1,1.71.37,4.37,4.37,0,0,1,1.65,1.12,8.91,8.91,0,0,1,1.58,3.21,3,3,0,0,0,.48.89.79.79,0,0,0,.25.2s.09.05,0,0l.18.08.12,0a4.22,4.22,0,0,0,2.21-.4l2.84-1.06c1.85-.69,3.59-1.33,5.11-1.84s2.79-.93,3.69-1.21,1.44-.41,1.44-.41-.41.37-1.16.94-1.85,1.38-3.22,2.23a52.71,52.71,0,0,1-4.79,2.73c-.91.46-1.85.9-2.83,1.33a6.44,6.44,0,0,1-4,.61,4.36,4.36,0,0,1-.64-.21l-.18-.08c-.21-.1-.22-.12-.34-.18a3.85,3.85,0,0,1-1-.83,5.16,5.16,0,0,1-1-1.89l-.43-1.46a4.12,4.12,0,0,0-.2-.54c0-.08-.08-.18-.1-.21a.57.57,0,0,0-.11-.19,2.61,2.61,0,0,0-1.67-1,9.34,9.34,0,0,0-2.3-.21c-.76,0-1.47.06-2.11.13l-1.66.19Z"/><path class="cls-11" d="M123.47,19.41A6.11,6.11,0,0,1,124,19a6,6,0,0,1,1.51-.74,3.4,3.4,0,0,1,1.22-.19,2.19,2.19,0,0,1,1.58.66,3.83,3.83,0,0,1,.74,1.41.49.49,0,0,0,.14.23s0,0,0,0l0,0,.08,0h0a1.39,1.39,0,0,0,.66-.13l1.12-.43a20.91,20.91,0,0,1,2.13-.66,13.21,13.21,0,0,1,2.2-.39,13.41,13.41,0,0,1-1.71,1.44,20.57,20.57,0,0,1-1.88,1.22,12.79,12.79,0,0,1-1.14.62,2.93,2.93,0,0,1-1.84.28l-.33-.11-.07,0-.18-.1a2.18,2.18,0,0,1-.49-.42,2.52,2.52,0,0,1-.46-.89c-.13-.49-.21-.79-.24-.87a.65.65,0,0,0-.45-.35,4,4,0,0,0-.87-.15c-.6,0-1.15,0-1.53,0Z"/></g></g></svg>