<?xml version="1.0" encoding="utf-8"?>
<!-- Generator: Adobe Illustrator 24.2.3, SVG Export Plug-In . SVG Version: 6.00 Build 0)  -->
<svg version="1.1" id="Layer_1" xmlns="http://www.w3.org/2000/svg" xmlns:xlink="http://www.w3.org/1999/xlink" x="0px" y="0px"
	 viewBox="0 0 1012.4 225.4" style="enable-background:new 0 0 1012.4 225.4;" xml:space="preserve">
<style type="text/css">
	.st0{fill:#009CFF;}
</style>
<g>
	<g>
		<path class="st0" d="M751.8,148v-30h-30v30H708V74.8h13.9v29.9h30V74.8h13.7V148H751.8z"/>
		<path class="st0" d="M854,111.4c0,5.4-1,10.4-3.1,15.1c-2,4.7-4.8,8.7-8.4,12.1c-3.5,3.4-7.7,6.1-12.5,8.1
			c-4.8,2-9.9,2.9-15.3,2.9c-5.5,0-10.6-1-15.3-2.9c-4.8-2-8.9-4.6-12.4-8.1c-3.5-3.4-6.3-7.5-8.4-12.1c-2-4.7-3.1-9.7-3.1-15.1
			c0-5.4,1-10.4,3.1-15.1c2-4.7,4.8-8.7,8.4-12.1c3.5-3.4,7.7-6.1,12.4-8.1c4.7-2,9.9-2.9,15.3-2.9c5.4,0,10.5,1,15.3,2.9
			c4.8,2,8.9,4.6,12.5,8.1c3.5,3.4,6.3,7.5,8.4,12.1C852.9,100.9,854,106,854,111.4z M839.7,111.4c0-3.4-0.7-6.7-2-9.7
			c-1.3-3-3.1-5.7-5.3-7.9c-2.2-2.2-4.9-4-8-5.3c-3.1-1.3-6.3-2-9.8-2c-3.4,0-6.7,0.7-9.7,2c-3,1.3-5.7,3.1-7.9,5.3
			c-2.2,2.2-4,4.9-5.3,7.9c-1.3,3-2,6.3-2,9.7c0,3.4,0.6,6.7,2,9.8c1.3,3.1,3.1,5.7,5.3,8c2.2,2.2,4.9,4,7.9,5.3c3,1.3,6.3,2,9.7,2
			c3.4,0,6.7-0.6,9.8-2c3.1-1.3,5.7-3.1,8-5.3c2.2-2.2,4-4.9,5.3-8C839.1,118.1,839.7,114.8,839.7,111.4z"/>
		<path class="st0" d="M906.4,92.3c-2.1-1.8-4.7-3.2-7.6-4.2c-2.9-1-6.1-1.6-9.7-1.6c-2.9,0-5.3,0.6-7.3,1.9c-2,1.3-3.3,2.7-4,4.4
			c-0.6,1.7-0.4,3.4,0.6,5.1c1,1.7,3.1,3,6.4,3.9l11.7,3c2.8,0.7,5.4,1.7,7.9,2.9c2.5,1.2,4.6,2.8,6.4,4.6c1.8,1.8,3.3,3.9,4.3,6.3
			c1.1,2.4,1.6,5.1,1.6,8.1c0,3.3-0.7,6.3-2.2,9c-1.5,2.8-3.4,5.2-6,7.2c-2.5,2-5.4,3.7-8.8,4.8c-3.4,1.2-6.9,1.8-10.8,1.8
			c-5.3,0-10.2-0.8-14.8-2.5c-4.6-1.7-8.7-4-12.2-6.9l7.8-11c2.3,2.3,5.1,4.1,8.4,5.4c3.3,1.3,6.9,2,10.8,2c2.3,0,4.3-0.4,6.1-1.1
			c1.8-0.7,3.3-1.7,4.5-2.8c1.2-1.1,2-2.4,2.5-3.9c0.5-1.4,0.5-2.8,0.1-4.2c-0.4-1.4-1.3-2.6-2.7-3.9c-1.4-1.2-3.3-2.1-5.8-2.8
			l-12.5-3.2c-2.5-0.6-4.9-1.6-7.1-2.8c-2.2-1.2-4.1-2.6-5.7-4.3c-1.6-1.7-2.9-3.6-3.8-5.9c-0.9-2.2-1.4-4.7-1.4-7.3
			c0-3,0.7-5.8,2-8.3c1.4-2.6,3.2-4.8,5.6-6.7c2.3-1.9,5.1-3.4,8.2-4.5c3.1-1.1,6.4-1.6,10-1.6c4.9,0,9.4,0.7,13.7,2.2
			c4.2,1.5,8,3.5,11.3,6L906.4,92.3z"/>
		<path class="st0" d="M956.5,88.2V148h-13.8V88.2H921V74.8h57.1v13.4H956.5z"/>
	</g>
	<path d="M297.9,98.5c0,3.2-0.6,6.1-1.8,9c-1.2,2.8-2.9,5.2-4.9,7.3c-2.1,2.1-4.5,3.7-7.3,4.9c-2.8,1.2-5.8,1.8-9,1.8H250V148h-6.7
		V75.4h31.5c3.2,0,6.1,0.6,9,1.8c2.8,1.2,5.2,2.9,7.3,4.9c2.1,2.1,3.7,4.5,4.9,7.4C297.2,92.4,297.9,95.4,297.9,98.5z M291.3,98.5
		c0-2.3-0.4-4.5-1.3-6.5c-0.9-2-2-3.7-3.5-5.2c-1.5-1.5-3.2-2.7-5.2-3.5c-2-0.9-4.1-1.3-6.4-1.3H250v33.1h24.8
		c2.3,0,4.4-0.4,6.4-1.3c2-0.9,3.7-2,5.2-3.5c1.5-1.5,2.7-3.2,3.5-5.3C290.8,102.9,291.3,100.8,291.3,98.5z"/>
	<path d="M362.8,98.5c0,2.5-0.4,4.8-1.1,7.1c-0.7,2.3-1.8,4.3-3.1,6.2c-1.3,1.9-2.9,3.6-4.8,5c-1.9,1.4-3.9,2.5-6.1,3.4l13.8,27.8
		h-7.3L341,121.6H315V148h-6.7V75.4h31.5c3.2,0,6.1,0.6,9,1.8c2.8,1.2,5.2,2.9,7.3,4.9c2.1,2.1,3.7,4.5,4.9,7.4
		C362.2,92.4,362.8,95.4,362.8,98.5z M356.3,98.5c0-2.3-0.4-4.5-1.3-6.5c-0.9-2-2-3.7-3.5-5.2c-1.5-1.5-3.2-2.7-5.2-3.5
		c-2-0.9-4.1-1.3-6.4-1.3H315v33.1h24.8c2.3,0,4.4-0.4,6.4-1.3c2-0.9,3.7-2,5.2-3.5c1.5-1.5,2.7-3.2,3.5-5.3
		C355.8,102.9,356.3,100.8,356.3,98.5z"/>
	<path d="M431.3,141.3v6.7h-52.8V75.4h52.8V82h-46.2v26.4h39.5v6.7h-39.5v26.2H431.3z"/>
	<path d="M496.7,98.5c0,3.2-0.6,6.1-1.8,9c-1.2,2.8-2.9,5.2-4.9,7.3c-2.1,2.1-4.5,3.7-7.3,4.9c-2.8,1.2-5.8,1.8-9,1.8h-24.8V148
		h-6.7V75.4h31.5c3.2,0,6.1,0.6,9,1.8c2.8,1.2,5.2,2.9,7.3,4.9c2.1,2.1,3.7,4.5,4.9,7.4C496.1,92.4,496.7,95.4,496.7,98.5z
		 M490.1,98.5c0-2.3-0.4-4.5-1.3-6.5c-0.9-2-2-3.7-3.5-5.2c-1.5-1.5-3.2-2.7-5.2-3.5c-2-0.9-4.1-1.3-6.4-1.3h-24.8v33.1h24.8
		c2.3,0,4.4-0.4,6.4-1.3c2-0.9,3.7-2,5.2-3.5c1.5-1.5,2.7-3.2,3.5-5.3C489.6,102.9,490.1,100.8,490.1,98.5z"/>
	<path d="M552.2,148l-6.4-16.5h-35.7l-6.4,16.5h-7.1l28.1-72.6h6.6l28.1,72.6H552.2z M543.3,125L528,85.2L512.7,125H543.3z"/>
	<path d="M572.7,75.4h6.7V148h-6.7V75.4z"/>
	<path d="M659.9,111.7c0,5-1,9.7-2.9,14.1c-1.9,4.4-4.5,8.2-7.8,11.5c-3.3,3.3-7.1,5.9-11.5,7.8c-4.4,1.9-9.1,2.9-14.1,2.9h-24.8
		V75.4h24.8c5,0,9.7,1,14.1,2.9c4.4,1.9,8.2,4.5,11.5,7.8c3.3,3.3,5.9,7.1,7.8,11.5C659,102,659.9,106.7,659.9,111.7z M653.3,111.7
		c0-4.1-0.8-8-2.3-11.6c-1.5-3.6-3.7-6.8-6.3-9.4c-2.7-2.7-5.8-4.8-9.4-6.3c-3.6-1.5-7.5-2.3-11.6-2.3h-18.1v59.3h18.1
		c4.1,0,8-0.8,11.6-2.3c3.6-1.5,6.8-3.7,9.4-6.3c2.7-2.7,4.8-5.8,6.3-9.4C652.6,119.6,653.3,115.8,653.3,111.7z"/>
	<path d="M669.2,108.4h26v6.5h-26V108.4z"/>
	<path d="M118.5,107.5V156c-7.9,4.2-17,6.6-26.5,6.6H71.3v-32.9h23.9c6.5,0,12.3-2.6,16.5-6.8C115.6,118.8,118.2,113.4,118.5,107.5z
		"/>
	<path d="M118.5,55.8v49.3c-0.6-12.3-10.8-22.2-23.3-22.2h-0.5c-12.9,0-23.4,10.5-23.4,23.4v98.9h-37v-99.2
		c0-31.3,25.4-56.7,56.7-56.7h1C101.5,49.2,110.6,51.6,118.5,55.8z"/>
	<path class="st0" d="M210.4,89v68.4h-30.1V88.3c0-8.7-7.1-15.8-15.8-15.8c-4.4,0-8.3,1.8-11.2,4.6c-2.9,2.9-4.6,6.8-4.6,11.2v17.6
		c0,21.7-12.2,40.6-30.2,50.1v-48.5c0-0.4,0-0.8,0-1.2c0-0.4,0-0.8,0-1.2V20.2h30.2v25.6c4.9-1.8,10.3-2.8,15.8-2.8
		c12.7,0,24.2,5.1,32.5,13.5S210.4,76.4,210.4,89z"/>
</g>
</svg>
