<?xml version="1.0" standalone="no"?>
<!DOCTYPE svg PUBLIC "-//W3C//DTD SVG 20010904//EN"
 "http://www.w3.org/TR/2001/REC-SVG-20010904/DTD/svg10.dtd">
<svg version="1.0" xmlns="http://www.w3.org/2000/svg"
 width="1024.000000pt" height="1024.000000pt" viewBox="0 0 1024.000000 1024.000000"
 preserveAspectRatio="xMidYMid meet">
<metadata>
Created by potrace 1.11, written by Peter Selinger 2001-2013
</metadata>
<g transform="translate(0.000000,1024.000000) scale(0.100000,-0.100000)"
fill="#000000" stroke="none">
<path d="M577 10230 c-230 -28 -409 -151 -501 -343 -54 -111 -69 -182 -68
-307 0 -55 193 -1763 461 -4090 405 -3523 463 -4005 486 -4080 109 -345 408
-632 769 -735 82 -23 392 -50 3985 -350 4202 -350 3967 -333 4099 -289 131 44
251 137 320 247 78 126 106 226 104 377 0 98 -793 7522 -812 7604 -81 361
-386 692 -740 800 -65 20 -1027 163 -3990 595 -2148 313 -3936 572 -3975 574
-38 3 -101 1 -138 -3z m4118 -919 c1964 -286 3601 -528 3638 -537 345 -80 655
-398 733 -752 8 -37 181 -1624 385 -3527 383 -3572 377 -3511 347 -3635 -30
-129 -134 -275 -245 -346 -65 -42 -179 -80 -263 -89 -46 -4 -1083 79 -3610
289 -1950 163 -3574 301 -3610 306 -367 62 -702 364 -800 722 -31 115 -873
7451 -865 7542 8 95 22 150 61 231 98 208 318 331 574 321 47 -2 1692 -238
3655 -525z"/>
<path d="M870 9724 c-224 -59 -370 -247 -370 -478 0 -91 835 -7360 856 -7451
20 -88 80 -218 138 -299 60 -84 198 -212 282 -262 83 -48 178 -88 259 -109 88
-22 7125 -608 7235 -602 252 13 434 201 447 462 4 72 -69 772 -366 3548 -401
3736 -374 3514 -447 3660 -114 225 -328 411 -549 476 -105 31 -7249 1071
-7350 1070 -44 0 -105 -7 -135 -15z m3496 -3939 c409 -709 748 -1290 754
-1290 7 0 1089 1858 1107 1903 4 9 -72 12 -363 12 l-369 -1 -184 -319 c-102
-176 -187 -320 -190 -320 -6 0 -742 1278 -749 1300 -2 7 540 10 1502 10 828 0
1506 -2 1506 -5 0 -14 -2254 -3915 -2261 -3913 -7 3 -2259 3904 -2259 3914 0
2 172 3 381 2 l381 -3 744 -1290z"/>
</g>
</svg>
